<svg id="e3NuW5bkoLt1" xmlns="http://www.w3.org/2000/svg" xmlns:xlink="http://www.w3.org/1999/xlink" viewBox="0 0 24 24" shape-rendering="geometricPrecision" text-rendering="geometricPrecision" style="background-color:transparent"><rect width="24" height="24" rx="0" ry="0" fill="none"/><path d="M5.96802,4L18.032,4c.4386-.00001.8171-.00002,1.1304.02135.3298.02251.6597.07201.9857.20701.735.30448,1.3191.88851,1.6235,1.62359.135.32593.1845.65584.2071.98567C22,7.15088,22,7.52936,22,7.96801v8.06399c0,.4386,0,.8171-.0213,1.1304-.0226.3298-.0721.6597-.2071.9857-.3044.735-.8885,1.3191-1.6235,1.6235-.326.135-.6559.1845-.9857.2071C18.8491,20,18.4706,20,18.032,20h-12.06399c-.43865,0-.81713,0-1.13039-.0213-.32983-.0226-.65974-.0721-.98567-.2071-.73508-.3044-1.31911-.8885-1.62359-1.6235-.135-.326-.1845-.6559-.20701-.9857-.02137-.3133-.02136-.6918-.02135-1.1304v-8.06398c-.00001-.43865-.00002-.81714.02135-1.1304.02251-.32983.07201-.65974.20701-.98567.30448-.73508.88851-1.31911,1.62359-1.62359.32593-.135.65584-.1845.98567-.20701.31326-.02137.69175-.02136,1.1304-.02135ZM4.31745,6.27777c.36369-.41563.99545-.45775,1.41109-.09407L11.3415,11.095c.377.3299.94.3299,1.317,0l5.613-4.9113c.4156-.36368,1.0474-.32156,1.411.09407s.3216,1.0474-.094,1.41108l-5.613,4.91135c-1.1311.9897-2.8199.9897-3.951,0L4.41153,7.68885c-.41564-.36368-.45776-.99544-.09408-1.41108Z" clip-rule="evenodd" fill="#323232" fill-rule="evenodd"/></svg>
